<svg width="180" height="203" viewBox="0 0 180 203" fill="none" xmlns="http://www.w3.org/2000/svg">
<g clip-path="url(#clip0_2_6)">
<rect width="180" height="203" fill="#DCDCDC" fill-opacity="0.78"/>
<path d="M150 171.25V154.333C150 145.36 146.839 136.755 141.213 130.41C135.587 124.065 127.956 120.5 120 120.5H60C52.0435 120.5 44.4129 124.065 38.7868 130.41C33.1607 136.755 30 145.36 30 154.333V171.25" stroke="black" stroke-width="2" stroke-linecap="round" stroke-linejoin="round"/>
<path d="M90 86.6667C106.569 86.6667 120 71.519 120 52.8333C120 34.1477 106.569 19 90 19C73.4315 19 60 34.1477 60 52.8333C60 71.519 73.4315 86.6667 90 86.6667Z" stroke="black" stroke-width="2" stroke-linecap="round" stroke-linejoin="round"/>
</g>
<defs>
<clipPath id="clip0_2_6">
<rect width="180" height="203" fill="white"/>
</clipPath>
</defs>
</svg>
